<svg xmlns="http://www.w3.org/2000/svg" width="40" height="40" viewBox="0 0 40 40" fill="none">
  <path d="M14 10h-2a4 4 0 0 0-4 4v2" stroke="#3B82F6" stroke-width="2" stroke-linecap="round"/>
  <path d="M26 10h2a4 4 0 0 1 4 4v2" stroke="#3B82F6" stroke-width="2" stroke-linecap="round"/>
  <path d="M14 30h-2a4 4 0 0 1-4-4v-2" stroke="#3B82F6" stroke-width="2" stroke-linecap="round"/>
  <path d="M26 30h2a4 4 0 0 0 4-4v-2" stroke="#3B82F6" stroke-width="2" stroke-linecap="round"/>
  <rect x="14" y="8" width="12" height="6" rx="2" stroke="#3B82F6" stroke-width="2" fill="none"/>
  <rect x="14" y="26" width="12" height="6" rx="2" stroke="#3B82F6" stroke-width="2" fill="none"/>
  <line x1="20" y1="14" x2="20" y2="26" stroke="#3B82F6" stroke-width="2" stroke-linecap="round" stroke-dasharray="3 3"/>
  <circle cx="20" cy="20" r="2" fill="#3B82F6"/>
</svg>
