<?xml version="1.0" encoding="UTF-8"?>
<svg id="Layer_1" xmlns="http://www.w3.org/2000/svg" viewBox="0 0 308.38 320.16">
  <path d="M184.89,219H51.83V0h123.56C197.69,0,218.54,9.23,234.09,25.99c14.27,15.38,22.46,35.36,22.46,54.81s-8.18,39.5-22.43,54.97c-13.33,14.46-30.54,23.36-49.22,25.62v57.61ZM70.83,200h95.06v-38.04h-56.67V57.04h75.67v85.06c26.53-4.73,52.65-28.59,52.65-61.3,0-29.23-25.52-61.8-62.15-61.8h-104.56v181ZM128.22,142.96h37.67v-66.92h-37.67v66.92Z"/>
  <path d="M0,306.5v-50.31h20.48c10.13,0,16.68,6.04,16.68,15.31s-6.54,15.38-16.68,15.38h-10.71v19.62H0ZM9.78,278.54h9.7c4.89,0,7.91-2.8,7.91-7.04s-3.02-6.97-7.91-6.97h-9.7v14.02ZM42.38,306.5v-50.89h9.13v50.89h-9.13ZM76.25,307.08c-11.36,0-18.62-7.76-18.62-18.69s7.69-18.69,18.26-18.69c11.79,0,19.05,9.13,17.47,20.63h-26.59c.72,6.04,4.53,9.13,9.49,9.13,4.46,0,7.19-2.16,7.83-4.82h9.13c-1.44,7.26-6.9,12.43-16.96,12.43ZM67.12,283.64h16.82c-.22-4.17-3.38-6.9-8.05-6.9s-7.62,2.37-8.77,6.9ZM116.4,307.08c-10.64,0-17.61-7.33-17.61-18.69s6.97-18.69,17.61-18.69c4.74,0,9.2,2.08,11.21,5.03v-19.12h9.13v50.89h-9.13v-4.53c-2.01,3.02-6.47,5.1-11.21,5.1ZM117.84,299.24c5.75,0,9.77-4.46,9.77-10.85s-4.02-10.92-9.77-10.92-9.78,4.38-9.78,10.92,4.03,10.85,9.78,10.85ZM160.55,320.16c-10.06,0-16.17-5.32-16.96-11.93h9.06c.93,3.38,3.81,4.89,7.91,4.89,5.32,0,9.2-2.8,9.2-8.19v-4.89c-1.87,2.88-6.11,4.67-10.85,4.67-9.77,0-16.82-6.9-16.82-17.47s6.97-17.54,16.89-17.54c4.74,0,8.77,1.8,10.78,4.6v-4.02h9.13v33.71c0,10.35-6.97,16.17-18.33,16.17ZM160.55,296.94c5.32,0,9.2-4.02,9.2-9.7s-3.88-9.77-9.2-9.77-9.27,3.95-9.27,9.77,3.88,9.7,9.27,9.7ZM203.51,307.08c-11.36,0-18.62-7.76-18.62-18.69s7.69-18.69,18.26-18.69c11.79,0,19.05,9.13,17.47,20.63h-26.59c.72,6.04,4.53,9.13,9.49,9.13,4.46,0,7.19-2.16,7.84-4.82h9.13c-1.44,7.26-6.9,12.43-16.96,12.43ZM194.38,283.64h16.82c-.22-4.17-3.38-6.9-8.05-6.9s-7.62,2.37-8.77,6.9ZM239.35,306.5v-39.53c-2.66,2.44-7.69,4.46-12.29,5.46v-8.41c4.31-1.01,9.85-4.02,13.87-7.83h8.27v50.31h-9.85ZM296.88,307.08c-7.12,0-11.64-5.18-11.64-12.65s4.53-12.65,11.64-12.65,11.5,5.18,11.5,12.65-4.46,12.65-11.5,12.65ZM267.41,280.91c-7.12,0-11.64-5.17-11.64-12.65s4.53-12.65,11.64-12.65,11.5,5.17,11.5,12.65-4.46,12.65-11.5,12.65ZM261.52,306.5l33.64-50.31h7.48l-33.64,50.31h-7.48ZM267.41,274.95c3.02,0,4.81-2.66,4.81-6.68s-1.8-6.68-4.81-6.68-4.96,2.59-4.96,6.68,1.8,6.68,4.96,6.68ZM296.88,301.11c3.02,0,4.82-2.66,4.82-6.68s-1.8-6.68-4.82-6.68-4.96,2.59-4.96,6.68,1.8,6.68,4.96,6.68Z"/>
</svg>