<svg width="1200" height="630" viewBox="0 0 1200 630" xmlns="http://www.w3.org/2000/svg">
  <defs>
    <linearGradient id="bg-grad" x1="0" y1="0" x2="1" y2="1">
      <stop offset="0%" stop-color="#0A0A0F"/>
      <stop offset="100%" stop-color="#12121A"/>
    </linearGradient>
    <radialGradient id="glow" cx="75%" cy="30%" r="50%">
      <stop offset="0%" stop-color="rgba(59,130,246,0.15)"/>
      <stop offset="100%" stop-color="rgba(59,130,246,0)"/>
    </radialGradient>
    <radialGradient id="glow2" cx="20%" cy="80%" r="40%">
      <stop offset="0%" stop-color="rgba(139,92,246,0.1)"/>
      <stop offset="100%" stop-color="rgba(139,92,246,0)"/>
    </radialGradient>
  </defs>

  <!-- Background -->
  <rect width="1200" height="630" fill="url(#bg-grad)"/>
  <rect width="1200" height="630" fill="url(#glow)"/>
  <rect width="1200" height="630" fill="url(#glow2)"/>

  <!-- Top border accent -->
  <rect x="0" y="0" width="1200" height="4" fill="#3B82F6"/>

  <!-- Brand name -->
  <text x="80" y="120" font-family="Inter, system-ui, sans-serif" font-size="28" font-weight="700" fill="#E8E8ED" letter-spacing="2">LUMINA ERP</text>

  <!-- Decorative line -->
  <rect x="80" y="145" width="60" height="3" rx="1.5" fill="#3B82F6"/>

  <!-- Main headline -->
  <text x="80" y="260" font-family="Inter, system-ui, sans-serif" font-size="64" font-weight="700" fill="#E8E8ED">Illuminate Your</text>
  <text x="80" y="340" font-family="Inter, system-ui, sans-serif" font-size="64" font-weight="700" fill="#3B82F6">ERP Potential</text>

  <!-- Subheadline -->
  <text x="80" y="410" font-family="Inter, system-ui, sans-serif" font-size="26" fill="#A0A0B0">Expert Prophet 21 Consulting for</text>
  <text x="80" y="448" font-family="Inter, system-ui, sans-serif" font-size="26" fill="#A0A0B0">Wholesale Distributors</text>

  <!-- Domain -->
  <text x="80" y="560" font-family="monospace" font-size="20" fill="#7A7A8A">lumina-erp.com</text>

  <!-- Bottom border accent -->
  <rect x="0" y="626" width="1200" height="4" fill="#3B82F6"/>

  <!-- Decorative grid dots (right side) -->
  <g fill="#2A2A36" opacity="0.6">
    <circle cx="900" cy="200" r="2"/><circle cx="940" cy="200" r="2"/><circle cx="980" cy="200" r="2"/><circle cx="1020" cy="200" r="2"/><circle cx="1060" cy="200" r="2"/><circle cx="1100" cy="200" r="2"/>
    <circle cx="900" cy="240" r="2"/><circle cx="940" cy="240" r="2"/><circle cx="980" cy="240" r="2"/><circle cx="1020" cy="240" r="2"/><circle cx="1060" cy="240" r="2"/><circle cx="1100" cy="240" r="2"/>
    <circle cx="900" cy="280" r="2"/><circle cx="940" cy="280" r="2"/><circle cx="980" cy="280" r="2"/><circle cx="1020" cy="280" r="2"/><circle cx="1060" cy="280" r="2"/><circle cx="1100" cy="280" r="2"/>
    <circle cx="900" cy="320" r="2"/><circle cx="940" cy="320" r="2"/><circle cx="980" cy="320" r="2"/><circle cx="1020" cy="320" r="2"/><circle cx="1060" cy="320" r="2"/><circle cx="1100" cy="320" r="2"/>
    <circle cx="900" cy="360" r="2"/><circle cx="940" cy="360" r="2"/><circle cx="980" cy="360" r="2"/><circle cx="1020" cy="360" r="2"/><circle cx="1060" cy="360" r="2"/><circle cx="1100" cy="360" r="2"/>
    <circle cx="900" cy="400" r="2"/><circle cx="940" cy="400" r="2"/><circle cx="980" cy="400" r="2"/><circle cx="1020" cy="400" r="2"/><circle cx="1060" cy="400" r="2"/><circle cx="1100" cy="400" r="2"/>
  </g>
</svg>
