<svg xmlns="http://www.w3.org/2000/svg" viewBox="0 0 800 400" fill="none">
  <defs>
    <linearGradient id="bg1" x1="0%" y1="0%" x2="100%" y2="100%">
      <stop offset="0%" stop-color="#12121A"/>
      <stop offset="100%" stop-color="#1A1A24"/>
    </linearGradient>
    <linearGradient id="accent1" x1="0%" y1="0%" x2="100%" y2="100%">
      <stop offset="0%" stop-color="#3B82F6" stop-opacity="0.3"/>
      <stop offset="100%" stop-color="#8B5CF6" stop-opacity="0.1"/>
    </linearGradient>
  </defs>
  <rect width="800" height="400" fill="url(#bg1)"/>
  <!-- Abstract cloud shape -->
  <ellipse cx="400" cy="180" rx="160" ry="80" fill="url(#accent1)"/>
  <ellipse cx="320" cy="180" rx="100" ry="70" fill="url(#accent1)"/>
  <ellipse cx="480" cy="180" rx="100" ry="70" fill="url(#accent1)"/>
  <!-- Upward arrow -->
  <line x1="400" y1="280" x2="400" y2="160" stroke="#3B82F6" stroke-width="3" stroke-linecap="round" opacity="0.6"/>
  <polyline points="380,180 400,160 420,180" stroke="#3B82F6" stroke-width="3" stroke-linecap="round" stroke-linejoin="round" fill="none" opacity="0.6"/>
  <!-- Grid dots -->
  <g opacity="0.15">
    <circle cx="100" cy="100" r="2" fill="#3B82F6"/><circle cx="150" cy="100" r="2" fill="#3B82F6"/>
    <circle cx="200" cy="100" r="2" fill="#3B82F6"/><circle cx="250" cy="100" r="2" fill="#3B82F6"/>
    <circle cx="100" cy="150" r="2" fill="#3B82F6"/><circle cx="150" cy="150" r="2" fill="#3B82F6"/>
    <circle cx="200" cy="150" r="2" fill="#3B82F6"/><circle cx="250" cy="150" r="2" fill="#3B82F6"/>
    <circle cx="100" cy="200" r="2" fill="#3B82F6"/><circle cx="150" cy="200" r="2" fill="#3B82F6"/>
    <circle cx="550" cy="250" r="2" fill="#3B82F6"/><circle cx="600" cy="250" r="2" fill="#3B82F6"/>
    <circle cx="650" cy="250" r="2" fill="#3B82F6"/><circle cx="700" cy="250" r="2" fill="#3B82F6"/>
    <circle cx="550" cy="300" r="2" fill="#3B82F6"/><circle cx="600" cy="300" r="2" fill="#3B82F6"/>
    <circle cx="650" cy="300" r="2" fill="#3B82F6"/><circle cx="700" cy="300" r="2" fill="#3B82F6"/>
  </g>
</svg>
